<svg id="Сгруппировать_34" data-name="Сгруппировать 34" xmlns="http://www.w3.org/2000/svg" xmlns:xlink="http://www.w3.org/1999/xlink" width="136.85" height="136.85" viewBox="0 0 136.85 136.85">
  <defs>
    <clipPath id="clip-path">
      <rect id="Прямоугольник_101" data-name="Прямоугольник 101" width="136.85" height="136.85" fill="none"/>
    </clipPath>
  </defs>
  <g id="Сгруппировать_33" data-name="Сгруппировать 33" clip-path="url(#clip-path)">
    <path id="Контур_1137" data-name="Контур 1137" d="M132.5,42.526a48.658,48.658,0,1,0,48.658,48.659A48.714,48.714,0,0,0,132.5,42.526m0,98.53a49.871,49.871,0,1,1,49.871-49.871A49.928,49.928,0,0,1,132.5,141.056" transform="translate(-45.518 -22.759)" fill="#fff"/>
    <path id="Контур_1138" data-name="Контур 1138" d="M49.871,42.526A48.658,48.658,0,1,0,98.53,91.185,48.713,48.713,0,0,0,49.871,42.526m0,98.53A49.871,49.871,0,1,1,99.743,91.185a49.928,49.928,0,0,1-49.872,49.871" transform="translate(0 -22.759)" fill="#fff"/>
    <path id="Контур_1139" data-name="Контур 1139" d="M91.184,83.839A48.658,48.658,0,1,0,139.842,132.5,48.714,48.714,0,0,0,91.184,83.839m0,98.53A49.871,49.871,0,1,1,141.055,132.5a49.928,49.928,0,0,1-49.871,49.871" transform="translate(-22.759 -45.518)" fill="#fff"/>
    <path id="Контур_1140" data-name="Контур 1140" d="M91.184,1.213a48.658,48.658,0,1,0,48.658,48.658A48.713,48.713,0,0,0,91.184,1.213m0,98.53a49.872,49.872,0,1,1,49.871-49.872A49.928,49.928,0,0,1,91.184,99.743" transform="translate(-22.759)" fill="#fff"/>
    <path id="Контур_1141" data-name="Контур 1141" d="M114.816,136.58c-2.509,0-5.04,1.852-5.04,5.99,0,4.578,2.6,6.21,5.04,6.21s5.04-1.632,5.04-6.21c0-4.138-2.532-5.99-5.04-5.99m0,13.413c-2.885,0-6.253-1.944-6.253-7.423,0-4.976,3.141-7.2,6.253-7.2s6.253,2.227,6.253,7.2c0,5.479-3.369,7.423-6.253,7.423" transform="translate(-59.807 -74.573)" fill="#fff"/>
    <rect id="Прямоугольник_100" data-name="Прямоугольник 100" width="1.213" height="13.595" transform="translate(63.918 61.313)" fill="#fff"/>
    <path id="Контур_1142" data-name="Контур 1142" d="M152.809,149.488H151.6v-8.851c0-1.527-.346-3.437-1.995-3.863-1.695-.437-4.166-.488-6.053,4.094l-1.122-.462c1.664-4.04,4.18-5.656,7.478-4.806,1.874.483,2.905,2.272,2.905,5.037Z" transform="translate(-78.462 -74.58)" fill="#fff"/>
    <path id="Контур_1143" data-name="Контур 1143" d="M182.946,149.373h-1.213c0-.037-.037-.181-.064-.3a8.321,8.321,0,0,1-.258-2.009v-7.632c0-.509-.19-3.051-3.935-3.051-3.5,0-3.945,2.617-4,3.142l-1.213.009s0-.078.006-.131c.044-.433.56-4.233,5.205-4.233,4.064,0,5.148,2.68,5.148,4.264v7.632a7.125,7.125,0,0,0,.226,1.731,2.592,2.592,0,0,1,.1.575" transform="translate(-94.9 -74.465)" fill="#fff"/>
    <path id="Контур_1144" data-name="Контур 1144" d="M176.11,157.627a5.542,5.542,0,0,1-3.089-.86,3.3,3.3,0,0,1-1.509-2.8,4,4,0,0,1,1.195-2.965c1.8-1.767,4.988-1.731,5.121-1.729H181.6v1.213h-3.785c-.037,0-2.831-.026-4.263,1.384a2.791,2.791,0,0,0-.829,2.1,2.07,2.07,0,0,0,.977,1.792,5.085,5.085,0,0,0,4.465.262,4.338,4.338,0,0,0,2.848-2.95l1.174.3a5.486,5.486,0,0,1-3.575,3.775,6.84,6.84,0,0,1-2.505.474" transform="translate(-94.485 -82.236)" fill="#fff"/>
  </g>
</svg>
